<?xml version="1.0" encoding="utf-8"?>
<!-- Generator: Adobe Illustrator 25.2.0, SVG Export Plug-In . SVG Version: 6.00 Build 0)  -->
<svg version="1.1" id="Layer_1" xmlns="http://www.w3.org/2000/svg" xmlns:xlink="http://www.w3.org/1999/xlink" x="0px" y="0px"
	 viewBox="0 0 546.59 139.88" style="enable-background:new 0 0 546.59 139.88;" xml:space="preserve">
<style type="text/css">
	.st0{fill:#FFFFFF;}
</style>
<g>
	<path class="st0" d="M5.53,86.66c4.42,2.21,12.8,5.37,20.22,5.37c6.32,0,9.63-3.16,9.63-6.95c0-3.79-2.53-6.48-9.63-9.95
		C16.9,70.71,9.48,64.23,9.48,54.6c0-16.11,14.06-26.69,33.96-26.69c9,0,16.11,1.9,19.74,3.95l-5.37,16.11
		c-3.16-1.42-8.69-3.32-15.48-3.32c-6,0-9.95,2.53-9.95,6.79c0,3.16,3.16,5.84,9.32,8.69c8.53,4.26,17.37,10.58,17.37,21.32
		c0,17.69-15.01,27.32-35.54,27.17c-9.63-0.16-18.95-2.69-23.53-6L5.53,86.66z"/>
	<path class="st0" d="M147.51,29.64l-9.79,52.12c-1.89,9.79-3.16,18.16-4.27,25.11h-20.05l1.42-12.48l-0.32-0.16
		c-7.9,10.11-17.21,14.37-26.53,14.37c-12.48,0-19.9-6.95-19.9-21.64c0-4.1,0.47-8.84,1.58-14.21l8.22-43.11h22.74l-7.89,41.38
		c-0.63,3.47-1.1,7.42-1.1,10.27c0,4.9,2.05,8.84,7.74,8.84c7.74,0,15.8-9.32,18.64-24.64l6.79-35.85H147.51z"/>
	<path class="st0" d="M147.35,106.87l9.79-52.12c1.9-9.79,3.16-18.16,4.11-25.11h20.06l-1.42,12.79h0.32
		c7.27-9.94,16.9-14.53,27-14.53c12.63,0,19.9,7.74,19.9,21.16c0,3.48-0.63,9.17-1.26,12.95l-8.53,44.85h-22.74l8.06-42.8
		c0.47-2.69,0.79-5.68,0.79-8.53c0-5.53-1.9-9.32-7.74-9.32c-7.42,0-15.95,9.32-19.27,26.37l-6.32,34.27H147.35z"/>
	<path class="st0" d="M260.42,29.64l0.16,32.85c0.16,8.69-0.16,15.95-0.63,24.47h0.32c2.69-8.21,6.16-15.95,9.32-23.69l15.32-33.64
		h18.48l1.9,32.54c0.48,9.16,0.79,16.58,0.32,24.79h0.47c2.53-8.53,5.21-16.11,8.36-25.11l13.27-32.22h22.9l-37.59,77.23H291.7
		l-2.21-26.85c-0.63-8.05-0.63-15.47-0.63-24.63h-0.48c-4.1,10.89-5.84,16.58-9.15,23.53l-13.11,27.95h-21.32l-7.27-77.23H260.42z"
		/>
	<polygon class="st0" points="342.55,106.87 357.24,29.64 379.82,29.64 365.29,106.87 	"/>
	<path class="st0" d="M379.66,106.87l9.79-52.12c1.89-9.79,3.16-18.16,4.1-25.11h20.05l-1.42,12.79h0.32
		c7.27-9.94,16.9-14.53,27.01-14.53c12.64,0,19.9,7.74,19.9,21.16c0,3.48-0.63,9.17-1.26,12.95l-8.53,44.85h-22.74l8.05-42.8
		c0.48-2.69,0.79-5.69,0.79-8.53c0-5.53-1.9-9.32-7.74-9.32c-7.42,0-15.95,9.32-19.26,26.37l-6.32,34.27H379.66z"/>
	<path class="st0" d="M468.89,117.61c4.26,2.52,13.58,4.27,20.22,4.27c11.37,0,19.74-5.05,23.06-20.53l1.26-6.63h-0.32
		c-6,7.9-12.95,11.53-22.11,11.53c-15.32,0-24.64-12.48-24.8-27.64c-0.16-25.42,18.17-50.7,51.81-50.7c10.9,0,20.37,2.06,28.58,5.37
		l-11.68,63.65c-2.69,14.21-7.11,26.85-16.27,34.27c-8.37,6.64-19.59,8.69-29.85,8.69c-10.43,0-19.9-1.89-25.27-4.89L468.89,117.61z
		 M521.96,46.7c-1.74-0.79-5.06-1.42-8.22-1.42c-13.74,0-23.53,15.32-23.53,29.85c0,7.89,3.47,13.58,10.42,13.58
		c7.42,0,14.85-8.37,17.38-21.32L521.96,46.7z"/>
	<path class="st0" d="M383.43,11.12c0,6.73-5.46,10.74-12.19,10.74c-6.73,0-12.19-4.01-12.19-10.74S364.5,0,371.24,0
		C377.97,0,383.43,4.39,383.43,11.12z"/>
</g>
</svg>
